<svg width="160" height="32" viewBox="0 0 160 32" fill="none" xmlns="http://www.w3.org/2000/svg">
<g clip-path="url(#clip0_131_160)">
<path d="M4.1542 3.46689C6.45046 1.37562 9.56848 0.154961 12.7286 0.0031339C13.8102 0.0031339 14.895 0.0092898 15.9766 0C15.9214 1.1061 15.9766 2.21523 15.9441 3.32127C15.7915 5.79365 14.8333 8.21023 13.2191 10.1497C11.1209 12.7584 7.91204 14.5088 4.50498 14.9612C3.01743 15.1905 1.50711 15.0448 0.00988705 15.0851C0.0358537 13.8675 -0.0453483 12.6469 0.0553285 11.4323C0.347678 8.42093 1.83847 5.5365 4.1542 3.46689Z" fill="#81818B"/>
<path d="M16.978 0C18.1376 0.0124237 19.2971 -0.00615546 20.4598 0.00621229C23.3537 0.201354 26.2086 1.26095 28.3878 3.09826C30.7912 5.06557 32.4382 7.87876 32.8601 10.884C33.0454 12.2782 32.9284 13.6878 33 15.0882C31.9865 15.0851 30.9764 15.0821 29.9629 15.0882C27.472 15.0232 25.0231 14.2548 22.9379 12.9598C21.9766 12.3029 20.9892 11.6369 20.2682 10.726C18.6865 9.04055 17.6114 6.92449 17.2054 4.69381C16.9001 3.14466 17.0235 1.5646 16.978 0Z" fill="#81818B"/>
<path d="M0.0120031 15.9742C1.0416 16.03 2.07445 15.9277 3.10075 16.0362C7.49517 16.126 11.7597 18.4806 14.0364 22.0653C15.3421 24.0729 16.0436 26.4525 15.9528 28.8161C15.9494 29.5912 15.9625 30.3624 15.9397 31.1341C14.3093 31.0871 12.6626 31.2141 11.0483 30.9136C7.46271 30.3377 4.16611 28.3019 2.18156 25.3958C0.677791 23.2829 -0.0724448 20.7021 0.00551119 18.1523C0.00551119 17.4241 0.00551146 16.6992 0.0120031 15.9742Z" fill="#81818B"/>
<path d="M27.5121 16.3024C29.279 15.9275 31.1006 15.9894 32.897 15.9894L32.9753 16.0638C32.9362 17.6842 33.0694 19.3231 32.7285 20.9249C32.0105 24.5188 29.5163 27.7283 26.161 29.4911C24.0726 30.6007 21.6757 31.1457 19.2885 31.1211C18.5252 31.1245 17.7587 31.1088 16.9955 31.1301C16.9955 29.7886 16.937 28.4413 17.0962 27.1056C17.4664 23.8743 19.2982 20.866 21.9323 18.8336C23.5627 17.6067 25.479 16.7175 27.5121 16.3024Z" fill="#81818B"/>
<path d="M44.2418 24.3555C44.2418 24.8672 44.0559 25.3 43.6853 25.6544C43.334 25.9891 42.8904 26.1564 42.3544 26.1564C41.8383 26.1564 41.4052 25.9891 41.0545 25.6544C40.7038 25.3 40.5284 24.8672 40.5284 24.3555V6.11191C40.5284 5.60019 40.7038 5.17709 41.0545 4.84256C41.4257 4.48829 41.8798 4.31116 42.4163 4.31116C42.9524 4.31116 43.3855 4.48829 43.7157 4.84256C44.0664 5.17709 44.2418 5.60019 44.2418 6.11191V24.3555Z" fill="#81818B"/>
<path d="M59.1475 10.3628C59.6835 10.3628 60.1271 10.5399 60.4784 10.8941C60.8285 11.2287 61.0039 11.6518 61.0039 12.1635V19.6617C61.0039 21.7478 60.3954 23.4009 59.1785 24.6211C57.961 25.8413 56.2075 26.4512 53.9169 26.4512C51.6274 26.4512 49.8734 25.8413 48.6564 24.6211C47.46 23.4009 46.8615 21.7478 46.8615 19.6617V12.1635C46.8615 11.6518 47.0368 11.2287 47.3875 10.8941C47.7382 10.5399 48.1818 10.3628 48.7184 10.3628C49.2549 10.3628 49.698 10.5399 50.0487 10.8941C50.4 11.2287 50.5753 11.6518 50.5753 12.1635V19.6617C50.5753 20.8622 50.8541 21.7576 51.4106 22.348C51.9676 22.9188 52.8034 23.2041 53.9169 23.2041C55.0525 23.2041 55.8978 22.9188 56.4553 22.348C57.0118 21.7576 57.2906 20.8622 57.2906 19.6617V12.1635C57.2906 11.6518 57.4659 11.2287 57.8166 10.8941C58.1673 10.5399 58.611 10.3628 59.1475 10.3628Z" fill="#81818B"/>
<path d="M72.1733 10.0676C73.8239 10.0676 75.0408 10.4514 75.8252 11.2189C76.609 11.9668 77.1251 12.9409 77.3723 14.1414L76.8463 13.8757L77.0941 13.4034C77.3414 12.9507 77.723 12.4686 78.2391 11.9569C78.7547 11.4255 79.3737 10.9828 80.0955 10.6285C80.8384 10.2545 81.6637 10.0676 82.5714 10.0676C84.0572 10.0676 85.1812 10.3727 85.9445 10.9827C86.7289 11.5928 87.2649 12.4095 87.5537 13.4329C87.8429 14.4366 87.9873 15.5584 87.9873 16.7982V24.3554C87.9873 24.8672 87.812 25.3 87.4607 25.6544C87.11 25.989 86.667 26.1564 86.1304 26.1564C85.5944 26.1564 85.1502 25.989 84.7995 25.6544C84.4488 25.3 84.2735 24.8672 84.2735 24.3554V16.7982C84.2735 16.1488 84.1911 15.5683 84.0262 15.0565C83.8608 14.5251 83.5616 14.102 83.1284 13.7871C82.6953 13.4723 82.0764 13.3148 81.2721 13.3148C80.4877 13.3148 79.8173 13.4723 79.2603 13.7871C78.7027 14.102 78.2801 14.5251 77.9913 15.0565C77.723 15.5683 77.5886 16.1488 77.5886 16.7982V24.3554C77.5886 24.8672 77.4133 25.3 77.0631 25.6544C76.7124 25.989 76.2683 26.1564 75.7322 26.1564C75.1957 26.1564 74.7521 25.989 74.4019 25.6544C74.0507 25.3 73.8753 24.8672 73.8753 24.3554V16.7982C73.8753 16.1488 73.7929 15.5683 73.6275 15.0565C73.4627 14.5251 73.1634 14.102 72.7303 13.7871C72.2972 13.4723 71.6777 13.3148 70.8734 13.3148C70.0895 13.3148 69.4191 13.4723 68.8616 13.7871C68.3051 14.102 67.8819 14.5251 67.5932 15.0565C67.3249 15.5683 67.191 16.1488 67.191 16.7982V24.3554C67.191 24.8672 67.0157 25.3 66.665 25.6544C66.3138 25.989 65.8706 26.1564 65.3341 26.1564C64.7975 26.1564 64.3544 25.989 64.0032 25.6544C63.6525 25.3 63.4772 24.8672 63.4772 24.3554V12.1635C63.4772 11.6519 63.6525 11.2287 64.0032 10.8942C64.3544 10.5399 64.7975 10.3628 65.3341 10.3628C65.8706 10.3628 66.3138 10.5399 66.665 10.8942C67.0157 11.2287 67.191 11.6519 67.191 12.1635V13.4329L66.7264 13.3444C66.9122 13.0098 67.1705 12.6555 67.5002 12.2816C67.8305 11.888 68.2326 11.5239 68.7072 11.1893C69.1818 10.8548 69.7079 10.5891 70.2854 10.3923C70.8634 10.1758 71.4929 10.0676 72.1733 10.0676Z" fill="#81818B"/>
<path d="M93.956 24.3555C93.956 24.8672 93.7807 25.3 93.4295 25.6544C93.0793 25.989 92.6357 26.1564 92.0991 26.1564C91.5631 26.1564 91.1189 25.989 90.7682 25.6544C90.4181 25.3 90.2427 24.8672 90.2427 24.3555V12.1635C90.2427 11.6519 90.4181 11.2287 90.7682 10.8942C91.1189 10.5399 91.5631 10.3628 92.0991 10.3628C92.6357 10.3628 93.0793 10.5399 93.4295 10.8942C93.7807 11.2287 93.956 11.6519 93.956 12.1635V24.3555ZM92.0681 8.44396C91.3667 8.44396 90.8717 8.33576 90.5824 8.11925C90.2942 7.90279 90.1498 7.51902 90.1498 6.96798V6.40707C90.1498 5.83639 90.3047 5.45256 90.6134 5.25579C90.9436 5.03928 91.4392 4.93103 92.0991 4.93103C92.8215 4.93103 93.3271 5.03928 93.6153 5.25579C93.9046 5.47225 94.049 5.85603 94.049 6.40707V6.96798C94.049 7.5387 93.8941 7.9323 93.5843 8.14875C93.2756 8.34558 92.7695 8.44396 92.0681 8.44396Z" fill="#81818B"/>
<path d="M105.076 10.0676C106.603 10.0676 107.758 10.3727 108.542 10.9827C109.347 11.5928 109.893 12.4095 110.182 13.4329C110.492 14.4366 110.646 15.5584 110.646 16.7982V24.3554C110.646 24.8672 110.471 25.3 110.12 25.6544C109.77 25.989 109.326 26.1564 108.789 26.1564C108.253 26.1564 107.81 25.989 107.459 25.6544C107.108 25.3 106.932 24.8672 106.932 24.3554V16.7982C106.932 16.1488 106.84 15.5683 106.655 15.0565C106.489 14.5251 106.18 14.102 105.726 13.7871C105.272 13.4723 104.622 13.3148 103.776 13.3148C102.951 13.3148 102.249 13.4723 101.672 13.7871C101.115 14.102 100.682 14.5251 100.372 15.0565C100.083 15.5683 99.9384 16.1488 99.9384 16.7982V24.3554C99.9384 24.8672 99.7636 25.3 99.4129 25.6544C99.0622 25.989 98.618 26.1564 98.082 26.1564C97.5455 26.1564 97.1019 25.989 96.7517 25.6544C96.4005 25.3 96.2251 24.8672 96.2251 24.3554V12.1635C96.2251 11.6519 96.4005 11.2287 96.7517 10.8942C97.1019 10.5399 97.5455 10.3628 98.082 10.3628C98.618 10.3628 99.0622 10.5399 99.4129 10.8942C99.7636 11.2287 99.9384 11.6519 99.9384 12.1635V13.4329L99.4748 13.3444C99.6607 13.0098 99.9284 12.6555 100.279 12.2816C100.63 11.888 101.043 11.5239 101.517 11.1893C101.992 10.8548 102.528 10.5891 103.126 10.3923C103.725 10.1758 104.375 10.0676 105.076 10.0676Z" fill="#81818B"/>
<path d="M129.02 18.2742C129.02 19.888 128.638 21.3149 127.875 22.5547C127.132 23.7749 126.121 24.7294 124.842 25.4181C123.583 26.1072 122.17 26.4512 120.602 26.4512C119.034 26.4512 117.61 26.1072 116.332 25.4181C115.073 24.7294 114.063 23.7749 113.299 22.5547C112.556 21.3149 112.185 19.888 112.185 18.2742C112.185 16.6605 112.556 15.2435 113.299 14.0233C114.063 12.7835 115.073 11.8191 116.332 11.1303C117.61 10.4218 119.034 10.0676 120.602 10.0676C122.17 10.0676 123.583 10.4218 124.842 11.1303C126.121 11.8191 127.132 12.7835 127.875 14.0233C128.638 15.2435 129.02 16.6605 129.02 18.2742ZM125.306 18.2742C125.306 17.2706 125.09 16.4046 124.656 15.6765C124.243 14.9286 123.676 14.3481 122.954 13.9348C122.253 13.5215 121.469 13.3148 120.602 13.3148C119.736 13.3148 118.941 13.5215 118.219 13.9348C117.518 14.3481 116.95 14.9286 116.517 15.6765C116.105 16.4046 115.898 17.2706 115.898 18.2742C115.898 19.2583 116.105 20.1242 116.517 20.8721C116.95 21.6002 117.518 22.1709 118.219 22.5842C118.941 22.9975 119.736 23.2041 120.602 23.2041C121.469 23.2041 122.253 22.9975 122.954 22.5842C123.676 22.1709 124.243 21.6002 124.656 20.8721C125.09 20.1242 125.306 19.2583 125.306 18.2742Z" fill="#81818B"/>
<path d="M142.861 10.3628C143.397 10.3628 143.841 10.5399 144.192 10.8941C144.542 11.2287 144.718 11.6518 144.718 12.1635V19.6617C144.718 21.7478 144.109 23.4009 142.892 24.6211C141.674 25.8413 139.921 26.4512 137.631 26.4512C135.341 26.4512 133.587 25.8413 132.37 24.6211C131.173 23.4009 130.575 21.7478 130.575 19.6617V12.1635C130.575 11.6518 130.75 11.2287 131.101 10.8941C131.452 10.5399 131.895 10.3628 132.432 10.3628C132.968 10.3628 133.412 10.5399 133.763 10.8941C134.113 11.2287 134.289 11.6518 134.289 12.1635V19.6617C134.289 20.8622 134.567 21.7576 135.124 22.348C135.681 22.9188 136.517 23.2041 137.631 23.2041C138.765 23.2041 139.612 22.9188 140.168 22.348C140.726 21.7576 141.004 20.8622 141.004 19.6617V12.1635C141.004 11.6518 141.18 11.2287 141.53 10.8941C141.881 10.5399 142.325 10.3628 142.861 10.3628Z" fill="#81818B"/>
<path d="M146.231 23.706C146.025 23.4305 145.932 23.0762 145.953 22.6433C145.974 22.2103 146.242 21.8364 146.758 21.5215C147.088 21.3247 147.438 21.246 147.81 21.2854C148.181 21.305 148.542 21.4821 148.893 21.8167C149.492 22.3874 150.121 22.8302 150.781 23.1451C151.441 23.46 152.266 23.6174 153.256 23.6174C153.566 23.5977 153.906 23.5584 154.277 23.4993C154.649 23.4206 154.969 23.2632 155.237 23.027C155.525 22.7712 155.67 22.3874 155.67 21.8757C155.67 21.4428 155.515 21.0983 155.206 20.8425C154.896 20.5867 154.484 20.3702 153.968 20.1931C153.473 20.016 152.916 19.8487 152.297 19.6912C151.657 19.5141 150.997 19.3173 150.316 19.1008C149.656 18.8844 149.047 18.6089 148.49 18.2742C147.934 17.92 147.48 17.4575 147.129 16.8868C146.778 16.3161 146.603 15.5977 146.603 14.7318C146.603 13.7478 146.891 12.9114 147.469 12.2226C148.047 11.5338 148.79 11.0024 149.697 10.6285C150.626 10.2545 151.595 10.0676 152.606 10.0676C153.246 10.0676 153.916 10.1463 154.618 10.3038C155.319 10.4415 155.99 10.6777 156.629 11.0123C157.269 11.3271 157.805 11.7503 158.239 12.2816C158.465 12.5768 158.6 12.931 158.641 13.3444C158.682 13.7576 158.486 14.1315 158.053 14.4661C157.744 14.7023 157.383 14.8105 156.97 14.7908C156.558 14.7515 156.217 14.6138 155.949 14.3776C155.598 13.9446 155.124 13.6002 154.525 13.3444C153.947 13.0885 153.277 12.9606 152.513 12.9606C152.204 12.9606 151.864 13 151.492 13.0787C151.142 13.1377 150.832 13.2854 150.564 13.5215C150.296 13.738 150.161 14.0922 150.161 14.5842C150.161 15.0369 150.316 15.4009 150.626 15.6765C150.935 15.9323 151.348 16.1488 151.864 16.3259C152.4 16.4834 152.968 16.6408 153.566 16.7982C154.185 16.9557 154.814 17.1426 155.454 17.3591C156.093 17.5757 156.681 17.8609 157.217 18.2152C157.754 18.5695 158.187 19.0319 158.517 19.6027C158.848 20.1537 159.012 20.8622 159.012 21.7281C159.012 22.7318 158.703 23.588 158.084 24.2964C157.465 25.0049 156.691 25.546 155.763 25.9201C154.835 26.2745 153.885 26.4512 152.916 26.4512C151.699 26.4512 150.482 26.2548 149.264 25.861C148.047 25.4476 147.036 24.7294 146.231 23.706Z" fill="#81818B"/>
</g>
<defs>
<clipPath id="clip0_131_160">
<rect width="160" height="32" fill="white"/>
</clipPath>
</defs>
</svg>
