<svg width="168" height="38" viewBox="0 0 168 38" fill="none" xmlns="http://www.w3.org/2000/svg">
<g clip-path="url(#clip0_131_188)">
<path d="M50.0682 10.5348C51.6558 10.5348 53.0298 10.7903 54.1905 11.3014C55.3681 11.8124 56.2722 12.5378 56.9037 13.4776C57.5353 14.4173 57.8514 15.5301 57.8514 16.816C57.8514 18.0854 57.5353 19.1982 56.9037 20.1544C56.2722 21.0941 55.3681 21.8195 54.1905 22.3308C53.0298 22.8251 51.6558 23.0725 50.0682 23.0725H46.4589V27.8453H42.3119V10.5348H50.0682ZM49.8383 19.8082C51.0836 19.8082 52.0312 19.5527 52.6796 19.0416C53.3285 18.514 53.6524 17.7722 53.6524 16.816C53.6524 15.8433 53.3285 15.1014 52.6796 14.5904C52.0312 14.0628 51.0836 13.799 49.8383 13.799H46.4589V19.8082H49.8383Z" fill="#81818B"/>
<path d="M63.0651 16.2967C63.5424 15.6537 64.1829 15.1674 64.9845 14.8377C65.8041 14.5079 66.7422 14.3431 67.8006 14.3431V17.9041C67.357 17.8711 67.0583 17.8547 66.9045 17.8547C65.761 17.8547 64.8654 18.1679 64.217 18.7944C63.5681 19.4043 63.2436 20.3276 63.2436 21.5639V27.8454H59.2505V14.541H63.0651V16.2967Z" fill="#81818B"/>
<path d="M75.3239 28.0429C73.8733 28.0429 72.5677 27.7547 71.4074 27.1774C70.264 26.5841 69.3678 25.7678 68.7194 24.7292C68.071 23.6906 67.7466 22.5118 67.7466 21.1931C67.7466 19.8742 68.071 18.6954 68.7194 17.6568C69.3678 16.6182 70.264 15.8104 71.4074 15.2334C72.5677 14.6399 73.8733 14.3431 75.3239 14.3431C76.7745 14.3431 78.0718 14.6399 79.2152 15.2334C80.3587 15.8104 81.2548 16.6182 81.9037 17.6568C82.5516 18.6954 82.876 19.8742 82.876 21.1931C82.876 22.5118 82.5516 23.6906 81.9037 24.7292C81.2548 25.7678 80.3587 26.5841 79.2152 27.1774C78.0718 27.7547 76.7745 28.0429 75.3239 28.0429ZM75.3239 24.8776C76.3482 24.8776 77.1845 24.5482 77.8329 23.8885C78.4986 23.2127 78.8309 22.3143 78.8309 21.1931C78.8309 20.072 78.4986 19.1818 77.8329 18.5223C77.1845 17.8464 76.3482 17.5084 75.3239 17.5084C74.3002 17.5084 73.4554 17.8464 72.7897 18.5223C72.124 19.1818 71.7912 20.072 71.7912 21.1931C71.7912 22.3143 72.124 23.2127 72.7897 23.8885C73.4554 24.5482 74.3002 24.8776 75.3239 24.8776Z" fill="#81818B"/>
<path d="M100.983 10.5348V27.8453H97.578L88.643 17.3353V27.8453H84.547V10.5348H87.9773L96.8866 21.0447V10.5348H100.983Z" fill="#81818B"/>
<path d="M109.216 14.3431C111.349 14.3431 112.988 14.8377 114.131 15.8269C115.275 16.7996 115.846 18.2751 115.846 20.2534V27.8454H112.109V26.1883C111.358 27.4248 109.959 28.0429 107.911 28.0429C106.852 28.0429 105.93 27.8701 105.145 27.5238C104.378 27.1774 103.789 26.6996 103.379 26.0894C102.97 25.4795 102.765 24.7869 102.765 24.0122C102.765 22.7757 103.243 21.8031 104.198 21.0942C105.171 20.3853 106.665 20.0308 108.679 20.0308H111.853C111.853 19.19 111.589 18.5471 111.059 18.1019C110.53 17.6403 109.737 17.4095 108.679 17.4095C107.945 17.4095 107.219 17.5249 106.503 17.7557C105.803 17.9701 105.205 18.2668 104.71 18.646L103.277 15.9505C104.028 15.4394 104.923 15.0438 105.964 14.7635C107.023 14.4833 108.107 14.3431 109.216 14.3431ZM108.909 25.4466C109.592 25.4466 110.197 25.2982 110.726 25.0013C111.255 24.6879 111.631 24.2348 111.853 23.6411V22.2813H109.114C107.475 22.2813 106.656 22.8004 106.656 23.839C106.656 24.3338 106.852 24.7292 107.245 25.0261C107.654 25.3064 108.209 25.4466 108.909 25.4466Z" fill="#81818B"/>
<path d="M127.064 27.2021C126.672 27.4825 126.185 27.6969 125.605 27.8453C125.042 27.9768 124.444 28.0428 123.813 28.0428C122.175 28.0428 120.903 27.6392 119.999 26.8315C119.111 26.0234 118.667 24.8363 118.667 23.2704V17.8052H116.543V14.8377H118.667V11.5981H122.661V14.8377H126.091V17.8052H122.661V23.2209C122.661 23.7812 122.806 24.2183 123.096 24.5316C123.403 24.8281 123.83 24.9765 124.376 24.9765C125.008 24.9765 125.545 24.8116 125.989 24.4822L127.064 27.2021Z" fill="#81818B"/>
<path d="M141.902 14.541V27.8454H138.113V26.2626C137.584 26.8394 136.952 27.2847 136.218 27.598C135.484 27.8949 134.691 28.0429 133.837 28.0429C132.028 28.0429 130.595 27.5403 129.536 26.5347C128.478 25.5291 127.949 24.037 127.949 22.0588V14.541H131.943V21.4898C131.943 23.6329 132.873 24.7045 134.733 24.7045C135.689 24.7045 136.457 24.408 137.038 23.8143C137.617 23.2045 137.908 22.3061 137.908 21.119V14.541H141.902Z" fill="#81818B"/>
<path d="M148.136 16.2967C148.613 15.6537 149.254 15.1674 150.056 14.8377C150.875 14.5079 151.814 14.3431 152.872 14.3431V17.9041C152.428 17.8711 152.129 17.8547 151.976 17.8547C150.832 17.8547 149.936 18.1679 149.288 18.7944C148.639 19.4043 148.315 20.3276 148.315 21.5639V27.8454H144.321V14.541H148.136V16.2967Z" fill="#81818B"/>
<path d="M167.333 21.2427C167.333 21.2918 167.308 21.6381 167.256 22.2813H156.837C157.024 23.1055 157.468 23.7565 158.168 24.2348C158.868 24.7127 159.738 24.9518 160.779 24.9518C161.496 24.9518 162.127 24.8529 162.673 24.655C163.237 24.441 163.757 24.1111 164.235 23.6658L166.36 25.8915C165.063 27.3259 163.168 28.0429 160.676 28.0429C159.124 28.0429 157.75 27.7547 156.555 27.1774C155.36 26.5841 154.439 25.7678 153.79 24.7292C153.141 23.6906 152.818 22.5118 152.818 21.1931C152.818 19.8907 153.133 18.7202 153.765 17.6816C154.413 16.6264 155.292 15.8104 156.401 15.2334C157.528 14.6399 158.782 14.3431 160.165 14.3431C161.513 14.3431 162.733 14.6234 163.826 15.1839C164.918 15.7444 165.771 16.5522 166.386 17.6074C167.017 18.646 167.333 19.8577 167.333 21.2427ZM160.19 17.2611C159.286 17.2611 158.526 17.5084 157.912 18.003C157.297 18.4976 156.922 19.1736 156.785 20.0308H163.57C163.433 19.19 163.057 18.5223 162.443 18.0277C161.829 17.5167 161.078 17.2611 160.19 17.2611Z" fill="#81818B"/>
<path fill-rule="evenodd" clip-rule="evenodd" d="M19.3645 0.891805C18.7626 0.555434 18.0204 0.555434 17.4185 0.891805C13.1432 3.28078 10.2596 7.75062 10.2596 12.8733C10.2596 13.6034 10.3182 14.3202 10.431 15.0197C7.48792 14.0542 4.3012 14.4055 1.69831 15.8543C1.09583 16.1897 0.724719 16.8105 0.725343 17.4822C0.728407 21.026 2.63415 24.4797 6.0472 26.3831C7.72162 27.3171 9.5492 27.7608 11.3519 27.7617C11.0776 28.5125 10.9284 29.3201 10.9284 30.1614C10.9284 34.143 14.2697 37.3701 18.3912 37.3701C22.513 37.3701 25.854 34.143 25.854 30.1614C25.854 29.318 25.7042 28.5088 25.4289 27.7568C27.1241 27.705 28.8316 27.2604 30.4039 26.3831C33.8173 24.4797 35.7227 21.026 35.7253 17.4824C35.7264 16.8107 35.3551 16.1899 34.7526 15.8545C32.2526 14.4627 29.2132 14.0837 26.3692 14.9119C26.4709 14.2466 26.5232 13.5659 26.5232 12.8733C26.5232 7.75062 23.6399 3.28078 19.3645 0.891805ZM14.1459 12.8733C14.1459 9.54678 15.8133 6.59469 18.3915 4.75714C20.9697 6.59469 22.6371 9.54678 22.6371 12.8733C22.6371 16.1998 20.9697 19.1519 18.3915 20.9894C15.8133 19.1519 14.1459 16.1998 14.1459 12.8733ZM26.055 19.1072C27.8495 18.1064 29.923 17.99 31.7343 18.6232C31.3967 20.4551 30.2553 22.1313 28.4608 23.1321C26.6664 24.133 24.5929 24.2492 22.7816 23.6163C23.1193 21.7842 24.2606 20.108 26.055 19.1072ZM4.71687 18.6231C6.5281 17.9898 8.60158 18.1062 10.396 19.1071C12.1906 20.1078 13.3317 21.7842 13.6696 23.6158C11.8583 24.2492 9.78483 24.133 7.99033 23.1321C6.19588 22.1313 5.05475 20.4549 4.71687 18.6231ZM14.8147 30.1614C14.8147 28.2535 16.416 26.7065 18.3912 26.7065C20.3665 26.7065 21.9679 28.2535 21.9679 30.1614C21.9679 32.0694 20.3665 33.6164 18.3912 33.6164C16.416 33.6164 14.8147 32.0694 14.8147 30.1614Z" fill="#81818B"/>
</g>
<defs>
<clipPath id="clip0_131_188">
<rect width="168" height="38" fill="white"/>
</clipPath>
</defs>
</svg>
