<svg width="164" height="34" viewBox="0 0 164 34" fill="none" xmlns="http://www.w3.org/2000/svg">
<g clip-path="url(#clip0_131_211)">
<path fill-rule="evenodd" clip-rule="evenodd" d="M5.78906 8.3687C8.44691 4.9719 12.703 2.77125 17.5001 2.77125C22.3253 2.77125 26.6031 4.99787 29.2578 8.42874C29.1447 8.53913 29.0419 8.65355 28.9487 8.76781C28.4624 9.36612 28.0966 10.1367 27.8035 10.9194C27.2132 12.4933 26.763 14.5493 26.3461 16.4745L26.3091 16.6476C25.8932 18.5693 25.5066 20.3565 25.0391 21.6832C24.8291 22.2792 24.63 22.7006 24.4534 22.9705C24.2691 22.6984 24.0601 22.2719 23.8388 21.6673C23.3388 20.3025 22.9183 18.4462 22.4726 16.464L22.4582 16.3991V16.399C22.0298 14.4952 21.5755 12.4751 21.0089 10.9287C20.7244 10.152 20.3752 9.38903 19.9184 8.79628C19.4702 8.21457 18.724 7.55806 17.6327 7.55806C16.5482 7.55806 15.7986 8.20744 15.3439 8.78263C14.8783 9.37157 14.5154 10.1313 14.2164 10.9085C13.6142 12.4734 13.1219 14.5206 12.6637 16.4484L12.6164 16.6476C12.1627 18.5573 11.7386 20.3428 11.2572 21.672C11.0734 22.1797 10.9 22.5659 10.743 22.8418C10.5896 22.5671 10.4205 22.1835 10.2417 21.6802C9.77984 20.3792 9.37523 18.6438 8.94068 16.7798L8.86461 16.4536C8.41438 14.5245 7.9259 12.4737 7.31517 10.9039C7.01174 10.1239 6.64059 9.36026 6.16031 8.76857C6.05155 8.63466 5.92797 8.4987 5.78906 8.3687ZM4.18045 10.9769C4.30704 11.2144 4.44096 11.5088 4.57941 11.8647C5.10806 13.2235 5.5559 15.0777 6.01708 17.0536L6.10685 17.4386C6.52673 19.2415 6.96352 21.117 7.47801 22.5659C7.75165 23.3365 8.08212 24.0913 8.5071 24.6779C8.90901 25.2327 9.63003 25.9493 10.7387 25.9493C11.8442 25.9493 12.5669 25.2362 12.9715 24.6839C13.4002 24.0986 13.736 23.3447 14.0152 22.5736C14.5503 21.096 15.006 19.1766 15.4421 17.3397V17.3396L15.5088 17.0588C15.9786 15.0817 16.431 13.2238 16.9557 11.8601C17.1988 11.2282 17.4264 10.788 17.6246 10.515C17.8124 10.7857 18.0269 11.2189 18.2545 11.8398C18.7545 13.2047 19.1746 15.061 19.6204 17.0432L19.635 17.1081C20.0632 19.012 20.5176 21.0322 21.0841 22.5783C21.3687 23.3554 21.7179 24.1183 22.1747 24.7109C22.623 25.2928 23.3691 25.9493 24.4602 25.9493C25.5571 25.9493 26.3005 25.2868 26.7435 24.6998C27.1933 24.1042 27.5316 23.3387 27.8048 22.5629C28.33 21.0727 28.7476 19.1392 29.1458 17.2998V17.2998L29.2028 17.0327C29.6315 15.053 30.043 13.2039 30.5511 11.8492C30.6611 11.5545 30.7696 11.3032 30.873 11.0921C31.6515 12.7876 32.0833 14.6597 32.0833 16.6276C32.0833 24.2801 25.5544 30.484 17.5001 30.484C9.4459 30.484 2.91668 24.2801 2.91668 16.6276C2.91668 14.615 3.36829 12.7025 4.18045 10.9769ZM17.5001 0C7.83506 0 0 7.44441 0 16.6276C0 25.8107 7.83506 33.255 17.5001 33.255C27.1653 33.255 35 25.8107 35 16.6276C35 7.44441 27.1653 0 17.5001 0ZM17.8335 10.283C17.8335 10.2833 17.8301 10.2859 17.8233 10.2897C17.83 10.2846 17.8335 10.2827 17.8335 10.283ZM17.4304 10.2849C17.4236 10.2809 17.4202 10.2782 17.4202 10.2779C17.4202 10.2775 17.4236 10.2795 17.4304 10.2849ZM24.2384 23.2335C24.2384 23.2335 24.2416 23.2305 24.2479 23.2267C24.2416 23.2318 24.2384 23.2339 24.2384 23.2335ZM24.6625 23.2224C24.6693 23.2263 24.6729 23.2288 24.6729 23.2293C24.6729 23.2297 24.6693 23.2275 24.6625 23.2224ZM10.4398 23.2584C10.4398 23.258 10.444 23.2541 10.4524 23.2486C10.444 23.2558 10.4398 23.2588 10.4398 23.2584ZM11.0305 23.2511C11.0388 23.2567 11.043 23.2606 11.043 23.261C11.0429 23.2614 11.0387 23.2588 11.0305 23.2511Z" fill="#81818B"/>
<path d="M46.4958 27.6351L42.1205 13.4144H45.953L48.5481 23.6498L51.5652 13.4144H55.8503L58.868 23.6498L61.493 13.4144H65.3255L60.9197 27.6351H56.9066L53.7078 16.9982L50.5095 27.6351H46.4958Z" fill="#81818B"/>
<path d="M70.9487 27.9793C69.6614 27.9793 68.6051 27.7877 67.7804 27.4055C66.9561 27.0042 66.3424 26.4786 65.9397 25.8287C65.5376 25.1788 65.3365 24.4621 65.3365 23.6785C65.3365 22.3597 65.8793 21.2893 66.9656 20.4674C68.0518 19.6455 69.6819 19.2346 71.8544 19.2346H75.6564V18.8905C75.6564 17.9157 75.3645 17.199 74.7812 16.7402C74.198 16.2815 73.4735 16.0522 72.6088 16.0522C71.8239 16.0522 71.1398 16.2337 70.5566 16.5969C69.9733 16.9409 69.611 17.457 69.4703 18.1451H65.6982C65.799 17.113 66.1613 16.2146 66.7844 15.45C67.4286 14.6855 68.2534 14.1025 69.2588 13.7012C70.2652 13.2807 71.3913 13.0704 72.6387 13.0704C74.7713 13.0704 76.4507 13.5769 77.6782 14.5899C78.9051 15.603 79.5188 17.0366 79.5188 18.8905V27.6351H76.2292L75.8675 25.3416C75.4249 26.1061 74.8012 26.7366 73.9969 27.2338C73.212 27.7306 72.1961 27.9793 70.9487 27.9793ZM71.8239 25.112C72.9306 25.112 73.7853 24.7678 74.3885 24.0798C75.0122 23.3919 75.4049 22.5411 75.5661 21.5282H72.2765C71.2506 21.5282 70.5167 21.7098 70.0736 22.0729C69.6315 22.4168 69.41 22.8472 69.41 23.3631C69.41 23.9175 69.6315 24.3475 70.0736 24.6532C70.5167 24.9589 71.0994 25.112 71.8239 25.112Z" fill="#81818B"/>
<path d="M85.5989 27.6351L80.1074 13.4144H84.1504L87.9524 24.1661L91.7545 13.4144H95.798L90.2761 27.6351H85.5989Z" fill="#81818B"/>
<path d="M103.562 27.9793C102.054 27.9793 100.716 27.6732 99.5492 27.0617C98.3826 26.4498 97.4676 25.5898 96.8035 24.4811C96.1393 23.3728 95.808 22.092 95.808 20.6394C95.808 19.1677 96.1299 17.8584 96.773 16.7116C97.4371 15.5648 98.3422 14.676 99.4893 14.0452C100.655 13.3954 102.024 13.0704 103.593 13.0704C105.061 13.0704 106.359 13.3762 107.486 13.9879C108.612 14.5995 109.487 15.4405 110.111 16.5109C110.754 17.5621 111.077 18.7376 111.077 20.0373C111.077 20.2476 111.066 20.4674 111.046 20.6967C111.046 20.9262 111.036 21.165 111.016 21.4135H99.64C99.7204 22.5221 100.123 23.3919 100.847 24.0228C101.591 24.6532 102.487 24.9687 103.533 24.9687C104.317 24.9687 104.971 24.8063 105.494 24.4811C106.037 24.1373 106.439 23.6976 106.701 23.1622H110.624C110.342 24.0608 109.869 24.8828 109.206 25.6283C108.561 26.3543 107.757 26.9277 106.791 27.3484C105.846 27.7687 104.769 27.9793 103.562 27.9793ZM103.593 16.0522C102.648 16.0522 101.812 16.3102 101.088 16.8262C100.364 17.3232 99.9015 18.0878 99.6999 19.1199H107.153C107.093 18.1833 106.731 17.4379 106.067 16.8836C105.403 16.3293 104.579 16.0522 103.593 16.0522Z" fill="#81818B"/>
<path d="M113.118 27.635V6.99219H116.98V27.635H113.118Z" fill="#81818B"/>
<path d="M126.991 27.9793C125.483 27.9793 124.145 27.6732 122.978 27.0617C121.812 26.4498 120.897 25.5898 120.233 24.4811C119.568 23.3728 119.237 22.092 119.237 20.6394C119.237 19.1677 119.559 17.8584 120.202 16.7116C120.866 15.5648 121.771 14.676 122.918 14.0452C124.085 13.3954 125.453 13.0704 127.022 13.0704C128.49 13.0704 129.788 13.3762 130.915 13.9879C132.041 14.5995 132.917 15.4405 133.54 16.5109C134.183 17.5621 134.506 18.7376 134.506 20.0373C134.506 20.2476 134.495 20.4674 134.475 20.6967C134.475 20.9262 134.465 21.165 134.445 21.4135H123.069C123.149 22.5221 123.552 23.3919 124.276 24.0228C125.02 24.6532 125.916 24.9687 126.962 24.9687C127.746 24.9687 128.4 24.8063 128.923 24.4811C129.466 24.1373 129.868 23.6976 130.13 23.1622H134.053C133.771 24.0608 133.298 24.8828 132.635 25.6283C131.99 26.3543 131.186 26.9277 130.22 27.3484C129.275 27.7687 128.199 27.9793 126.991 27.9793ZM127.022 16.0522C126.077 16.0522 125.242 16.3102 124.517 16.8262C123.793 17.3232 123.331 18.0878 123.129 19.1199H130.582C130.522 18.1833 130.16 17.4379 129.496 16.8836C128.832 16.3293 128.008 16.0522 127.022 16.0522Z" fill="#81818B"/>
<path d="M142.733 27.9793C141.405 27.9793 140.238 27.7784 139.233 27.3772C138.226 26.9564 137.422 26.3831 136.818 25.6566C136.215 24.9306 135.853 24.0896 135.732 23.134H139.625C139.745 23.6878 140.068 24.1661 140.591 24.5674C141.133 24.9496 141.827 25.1408 142.672 25.1408C143.517 25.1408 144.131 24.9784 144.513 24.6532C144.915 24.3285 145.117 23.9555 145.117 23.5352C145.117 22.9234 144.835 22.5124 144.272 22.3022C143.709 22.0729 142.924 21.8532 141.918 21.6429C141.275 21.5091 140.621 21.3466 139.957 21.1555C139.293 20.9644 138.68 20.7254 138.116 20.4388C137.573 20.1329 137.13 19.7506 136.788 19.2919C136.446 18.814 136.276 18.2311 136.276 17.543C136.276 16.2815 136.798 15.2207 137.845 14.3606C138.911 13.5005 140.399 13.0704 142.31 13.0704C144.081 13.0704 145.489 13.4622 146.535 14.2459C147.601 15.0296 148.235 16.1095 148.436 17.4857H144.785C144.563 16.4344 143.728 15.9088 142.281 15.9088C141.556 15.9088 140.993 16.0426 140.591 16.3102C140.208 16.5778 140.017 16.9122 140.017 17.3136C140.017 17.7342 140.309 18.0686 140.892 18.3171C141.476 18.5656 142.25 18.7949 143.216 19.0052C144.261 19.2346 145.217 19.4926 146.082 19.7793C146.967 20.0469 147.671 20.4579 148.195 21.0122C148.718 21.5473 148.979 22.3212 148.979 23.3343C148.999 24.2139 148.757 25.0067 148.255 25.7141C147.752 26.4211 147.028 26.9754 146.082 27.3772C145.137 27.7784 144.02 27.9793 142.733 27.9793Z" fill="#81818B"/>
<path d="M157.379 27.9793C156.052 27.9793 154.885 27.7784 153.879 27.3772C152.873 26.9564 152.069 26.3831 151.465 25.6566C150.862 24.9306 150.499 24.0896 150.379 23.134H154.272C154.392 23.6878 154.714 24.1661 155.237 24.5674C155.78 24.9496 156.474 25.1408 157.319 25.1408C158.164 25.1408 158.778 24.9784 159.16 24.6532C159.562 24.3285 159.764 23.9555 159.764 23.5352C159.764 22.9234 159.482 22.5124 158.918 22.3022C158.355 22.0729 157.571 21.8532 156.565 21.6429C155.921 21.5091 155.267 21.3466 154.603 21.1555C153.94 20.9644 153.326 20.7254 152.763 20.4388C152.22 20.1329 151.777 19.7506 151.435 19.2919C151.093 18.814 150.922 18.2311 150.922 17.543C150.922 16.2815 151.445 15.2207 152.491 14.3606C153.558 13.5005 155.046 13.0704 156.957 13.0704C158.727 13.0704 160.135 13.4622 161.182 14.2459C162.247 15.0296 162.881 16.1095 163.083 17.4857H159.431C159.21 16.4344 158.375 15.9088 156.927 15.9088C156.202 15.9088 155.639 16.0426 155.237 16.3102C154.855 16.5778 154.664 16.9122 154.664 17.3136C154.664 17.7342 154.955 18.0686 155.539 18.3171C156.122 18.5656 156.896 18.7949 157.862 19.0052C158.908 19.2346 159.864 19.4926 160.729 19.7793C161.614 20.0469 162.318 20.4579 162.841 21.0122C163.364 21.5473 163.626 22.3212 163.626 23.3343C163.646 24.2139 163.404 25.0067 162.901 25.7141C162.398 26.4211 161.675 26.9754 160.729 27.3772C159.783 27.7784 158.667 27.9793 157.379 27.9793Z" fill="#81818B"/>
</g>
<defs>
<clipPath id="clip0_131_211">
<rect width="164" height="34" fill="white"/>
</clipPath>
</defs>
</svg>
